# xmcd
#
# Track frame offsets:
#	150
#	44927
#	65975
#	73648
#	83573
#	96625
#	98984
#	132127
#	143519
#	169858
#	180478
#	193511
#	226674
#	243544
#	252246
#	260405
#	264760
#	274881
#	279940
#	294890
#	297719
#	314051
#	327852
#
# Disc length: 4483 seconds
#
# Revision: 1
# Processed by: cddbd v1.5.2PL0 Copyright (c) Steve Scherf et al.
# Submitted via: audiograbber 1.83.01
#
DISCID=64118117
DTITLE=Elvira Madigan - Regent Sie - Shedevils of Demonlore (in blood, crosses 
DTITLE=and biblewars
DYEAR=2008
DGENRE=Metal
TTITLE0=Mortal Man and The King
TTITLE1=Silfvertoungeed
TTITLE2=Solstice and Sleepwalking
TTITLE3=Demonaria I: Heart of the Devils Keep - My Blood
TTITLE4=Demonaria I: Heart of the Devils Keep - Wit
TTITLE5=Demonaria I: Heart of the Devils Keep - Simeons Monologue
TTITLE6=Lambmentation
TTITLE7=Sister Fairytale
TTITLE8=Demonaria II: Luminouses Gift - Spells of Six and Tears of Three
TTITLE9=Demonaria II: Luminouses Gift - Missfortune
TTITLE10=Demonaria II: Luminouses Gift - Ribbons
TTITLE11=The Harkencraft and the Witch of Marbeled Halls
TTITLE12=Demonaria III: Grin - Murder of Krouses
TTITLE13=Demonaria III: Grin - Severed
TTITLE14=Demonaria III: Grin - Vow of Feebleman
TTITLE15=Soulsearchking
TTITLE16=Rekindleself
TTITLE17=Liars in Wait
TTITLE18=Demonaria IV: Warring - Crosses and Biblewars
TTITLE19=Demonaria IV: Warring - Battlelost
TTITLE20=Demonaria IV: Warring - Hell Hath no Fury like a woodwoman scorned
TTITLE21=The True Worth of the Lie
TTITLE22=Regency
EXTD=
EXTT0=
EXTT1=
EXTT2=
EXTT3=
EXTT4=
EXTT5=
EXTT6=
EXTT7=
EXTT8=
EXTT9=
EXTT10=
EXTT11=
EXTT12=
EXTT13=
EXTT14=
EXTT15=
EXTT16=
EXTT17=
EXTT18=
EXTT19=
EXTT20=
EXTT21=
EXTT22=
PLAYORDER=
